<svg width="24" height="24" viewBox="0 0 24 24" fill="none" xmlns="http://www.w3.org/2000/svg">
<g clip-path="url(#clip0_1101_336)">
<path d="M3.8719 5.08756C5.27679 5.08756 6.41568 3.94867 6.41568 2.54378C6.41568 1.13889 5.27679 0 3.8719 0C2.46701 0 1.32812 1.13889 1.32812 2.54378C1.32812 3.94867 2.46701 5.08756 3.8719 5.08756Z" fill="white"/>
<path d="M6.74626 6.08301H1.4375V24.0001H6.74626V6.08301Z" fill="white"/>
<path d="M13.1603 6.08301H7.85156V24.0001H13.1603V6.08301Z" fill="white"/>
<path d="M12.7188 7.18915H14.2671V6.08316C14.2671 6.08316 22.6727 5.86196 22.6727 11.6131V24.0002H17.3639L17.2533 11.5025L12.8293 11.2813L12.7188 7.18915Z" fill="white"/>
</g>
<defs>
<clipPath id="clip0_1101_336">
<rect width="21.3456" height="24" fill="white" transform="translate(1.32812)"/>
</clipPath>
</defs>
</svg>
