<svg width="24" height="24" viewBox="0 0 24 24" fill="none" xmlns="http://www.w3.org/2000/svg">
<g clip-path="url(#clip0_1101_343)">
<g clip-path="url(#clip1_1101_343)">
<path d="M6.20758 13.8605L1.00234 12.1255C1.00234 12.1255 -1.11831 11.1615 0.809553 10.3904C2.73742 9.61924 22.5944 2.10057 22.5944 2.10057C22.5944 2.10057 24.3295 1.32942 23.9439 3.25729C23.5584 5.18515 20.281 20.9937 20.281 20.9937C20.281 20.9937 19.5099 22.9215 17.7748 21.572C16.1226 20.2881 10.1057 15.8597 9.52929 15.4356C9.51484 15.425 9.50372 15.4104 9.49723 15.3937C9.49075 15.377 9.48916 15.3587 9.49266 15.3411C9.53021 15.2194 9.5963 15.1083 9.68544 15.0173C9.87823 14.8245 19.585 6.42284 19.9031 6.14909C19.9995 6.05269 20.2887 5.37794 19.3248 5.9563C18.3608 6.53466 6.20758 13.8605 6.20758 13.8605Z" fill="white"/>
</g>
</g>
<defs>
<clipPath id="clip0_1101_343">
<rect width="24" height="24" fill="white"/>
</clipPath>
<clipPath id="clip1_1101_343">
<rect width="24" height="20.1038" fill="white" transform="translate(0 1.94824)"/>
</clipPath>
</defs>
</svg>
